# xmcd CD database file
#
# Track frame offsets:
#	183
#	12508
#	22408
#	34958
#	45258
#	56408
#	67033
#	78933
#	87233
#	96883
#	108658
#	120008
#	131808
#	139508
#	148658
#	157083
#	168033
#
# Disc length: 2368 seconds
#
# Revision: 0
# Processed by: cddbd v1.4PL0 Copyright (c) Steve Scherf et al.
# Submitted via: CDex 1.40Beta8
#
DISCID=e3093e11
DTITLE=Johnny Cash - Country Star Collection CD2
DYEAR=1900
DGENRE=Country
TTITLE0=I walk the line
TTITLE1=Stroy of a broken heart
TTITLE2=Next in line
TTITLE3=There you go
TTITLE4=Don't make me go
TTITLE5=Train of love
TTITLE6=Home of blues
TTITLE7=Guess things happen that way
TTITLE8=Just about time
TTITLE9=Thanks a lot
TTITLE10=Big river
TTITLE11=So doggone lonesome
TTITLE12=Hey good looking
TTITLE13=Blue train
TTITLE14=I forget to remember to forget
TTITLE15=I love you because
TTITLE16=Rock island line
EXTD=ID3G: 2
EXTT0=
EXTT1=
EXTT2=
EXTT3=
EXTT4=
EXTT5=
EXTT6=
EXTT7=
EXTT8=
EXTT9=
EXTT10=
EXTT11=
EXTT12=
EXTT13=
EXTT14=
EXTT15=
EXTT16=
PLAYORDER=
